<svg width="614" height="77" xmlns="http://www.w3.org/2000/svg" xmlns:xlink="http://www.w3.org/1999/xlink" overflow="hidden"><defs><clipPath id="clip0"><rect x="496" y="252" width="614" height="77"/></clipPath></defs><g clip-path="url(#clip0)" transform="translate(-496 -252)"><path d="M1039 272 1104 272 1104 325 1039 325Z" fill="#F4E9DF" fill-rule="evenodd"/><path d="M1065 299 1077 299 1077 320 1065 320Z" fill="#CEA68A" fill-rule="evenodd"/><path d="M1066 300 1077 300 1077 319 1066 319Z" fill="#2D4151" fill-rule="evenodd"/><path d="M1086 299 1099 299 1099 320 1086 320Z" fill="#CEA68A" fill-rule="evenodd"/><path d="M1087 300 1098 300 1098 319 1087 319Z" fill="#2D4151" fill-rule="evenodd"/><path d="M1044 299 1056 299 1056 320 1044 320Z" fill="#CEA68A" fill-rule="evenodd"/><path d="M1044 300 1055 300 1055 319 1044 319Z" fill="#2D4151" fill-rule="evenodd"/><path d="M1104.61 271 1037.39 271 1037 269.273 1071 253 1105 269.273Z" fill="#E2C8B3" fill-rule="evenodd"/><path d="M1039 281 1104 281 1104 283 1039 283Z" fill="#DBCEA9" fill-rule="evenodd"/><path d="M1104 271 1039 271 1071.5 256Z" fill="#CEA68A" fill-rule="evenodd"/><path d="M1052 268.293 1071.5 259 1091 268.293ZM1052.26 284.521 1058.8 284.521 1058.8 319 1052.26 319Z" fill="#E2C8B3" fill-rule="evenodd"/><path d="M1053.39 318C1053.17 318 1053 317.799 1053 317.551L1053 286.449C1053 286.201 1053.17 286 1053.39 286 1053.61 286 1053.78 286.201 1053.78 286.449L1053.78 317.551C1053.78 317.799 1053.61 318 1053.39 318 1053.39 318 1053.39 318 1053.39 318ZM1055 318C1054.78 318 1054.61 317.799 1054.61 317.551L1054.61 286.449C1054.61 286.201 1054.78 286 1055 286 1055.22 286 1055.39 286.201 1055.39 286.449 1055.39 286.449 1055.39 286.449 1055.39 286.449L1055.39 317.551C1055.39 317.799 1055.22 318 1055 318 1055 318 1055 318 1055 318ZM1056.61 318C1056.39 318 1056.22 317.799 1056.22 317.551L1056.22 286.449C1056.22 286.201 1056.39 286 1056.61 286 1056.83 286 1057 286.201 1057 286.449L1057 317.551C1057 317.799 1056.83 318 1056.61 318 1056.61 318 1056.61 318 1056.61 318Z" fill="#CEA68A" fill-rule="evenodd"/><path d="M1063 285 1069 285 1069 319 1063 319Z" fill="#E2C8B3" fill-rule="evenodd"/><path d="M1064.39 318C1064.17 318 1064 317.799 1064 317.551L1064 286.449C1064 286.201 1064.17 286 1064.39 286 1064.61 286 1064.78 286.201 1064.78 286.449 1064.78 286.449 1064.78 286.449 1064.78 286.449L1064.78 317.551C1064.78 317.799 1064.61 318 1064.39 318 1064.39 318 1064.39 318 1064.39 318ZM1066 318C1065.78 318 1065.61 317.799 1065.61 317.551L1065.61 286.449C1065.61 286.201 1065.78 286 1066 286 1066.22 286 1066.39 286.201 1066.39 286.449L1066.39 317.551C1066.39 317.799 1066.22 318 1066 318 1066 318 1066 318 1066 318ZM1067.61 318C1067.39 318 1067.22 317.799 1067.22 317.551L1067.22 286.449C1067.22 286.201 1067.39 286 1067.61 286 1067.83 286 1068 286.201 1068 286.449 1068 286.449 1068 286.449 1068 286.449L1068 317.551C1068 317.799 1067.83 318 1067.61 318 1067.61 318 1067.61 318 1067.61 318Z" fill="#CEA68A" fill-rule="evenodd"/><path d="M1074.41 318.883 1038 318.883 1038 322 1105 322 1105 318.883ZM1073.57 285 1080.15 285 1080.15 318.883 1073.57 318.883Z" fill="#E2C8B3" fill-rule="evenodd"/><path d="M1074.49 318C1074.22 318 1074 317.799 1074 317.551L1074 286.449C1074 286.201 1074.22 286 1074.49 286 1074.76 286 1074.98 286.201 1074.98 286.449 1074.98 286.449 1074.98 286.449 1074.98 286.449L1074.98 317.551C1074.98 317.799 1074.76 318 1074.49 318 1074.49 318 1074.49 318 1074.49 318ZM1076.5 318C1076.23 318 1076.01 317.799 1076.01 317.551L1076.01 286.449C1076.01 286.201 1076.23 286 1076.5 286 1076.77 286 1076.99 286.201 1076.99 286.449L1076.99 317.551C1076.99 317.799 1076.77 318 1076.5 318 1076.5 318 1076.5 318 1076.5 318ZM1078.51 318C1078.24 318 1078.02 317.799 1078.02 317.551L1078.02 286.449C1078.02 286.201 1078.24 286 1078.51 286 1078.78 286 1079 286.201 1079 286.449 1079 286.449 1079 286.449 1079 286.449L1079 317.551C1079 317.799 1078.78 318 1078.51 318 1078.51 318 1078.51 318 1078.51 318Z" fill="#CEA68A" fill-rule="evenodd"/><path d="M1041 285 1048 285 1048 319 1041 319Z" fill="#E2C8B3" fill-rule="evenodd"/><path d="M1042.49 318C1042.22 318 1042 317.799 1042 317.551L1042 286.449C1042 286.201 1042.22 286 1042.49 286 1042.76 286 1042.98 286.201 1042.98 286.449 1042.98 286.449 1042.98 286.449 1042.98 286.449L1042.98 317.551C1042.98 317.799 1042.76 318 1042.49 318ZM1044.5 318C1044.23 318 1044.01 317.799 1044.01 317.551L1044.01 286.449C1044.01 286.201 1044.23 286 1044.5 286 1044.77 286 1044.99 286.201 1044.99 286.449L1044.99 317.551C1044.99 317.799 1044.77 318 1044.5 318ZM1046.51 318C1046.24 318 1046.02 317.799 1046.02 317.551L1046.02 286.449C1046.02 286.201 1046.24 286 1046.51 286 1046.78 286 1047 286.201 1047 286.449L1047 317.551C1047 317.799 1046.78 318 1046.51 318Z" fill="#CEA68A" fill-rule="evenodd"/><path d="M1036 322 1107 322 1107 325 1036 325Z" fill="#DDB69B" fill-rule="evenodd"/><path d="M1033 325 1109 325 1109 327 1033 327Z" fill="#CEA68A" fill-rule="evenodd"/><path d="M1084 285 1091 285 1091 319 1084 319Z" fill="#E2C8B3" fill-rule="evenodd"/><path d="M1089.51 318C1089.78 318 1090 317.799 1090 317.551L1090 286.449C1090 286.201 1089.78 286 1089.51 286 1089.24 286 1089.02 286.201 1089.02 286.449L1089.02 317.551C1089.02 317.799 1089.24 318 1089.51 318 1089.51 318 1089.51 318 1089.51 318ZM1087.5 318C1087.77 318 1087.99 317.799 1087.99 317.551L1087.99 286.449C1087.99 286.201 1087.77 286 1087.5 286 1087.23 286 1087.01 286.201 1087.01 286.449 1087.01 286.449 1087.01 286.449 1087.01 286.449L1087.01 317.551C1087.01 317.799 1087.23 318 1087.5 318 1087.5 318 1087.5 318 1087.5 318ZM1085.49 318C1085.76 318 1085.98 317.799 1085.98 317.551L1085.98 286.449C1085.98 286.201 1085.76 286 1085.49 286 1085.22 286 1085 286.201 1085 286.449L1085 317.551C1085 317.799 1085.22 318 1085.49 318 1085.49 318 1085.49 318 1085.49 318Z" fill="#CEA68A" fill-rule="evenodd"/><path d="M1095 285 1101 285 1101 319 1095 319Z" fill="#E2C8B3" fill-rule="evenodd"/><path d="M1099.61 318C1099.83 318 1100 317.799 1100 317.551L1100 286.449C1100 286.201 1099.83 286 1099.61 286 1099.39 286 1099.22 286.201 1099.22 286.449 1099.22 286.449 1099.22 286.449 1099.22 286.449L1099.22 317.551C1099.22 317.799 1099.39 318 1099.61 318ZM1098 318C1098.22 318 1098.39 317.799 1098.39 317.551L1098.39 286.449C1098.39 286.201 1098.22 286 1098 286 1097.78 286 1097.61 286.201 1097.61 286.449L1097.61 317.551C1097.61 317.799 1097.78 318 1098 318ZM1096.39 318C1096.61 318 1096.78 317.799 1096.78 317.551L1096.78 286.449C1096.78 286.201 1096.61 286 1096.39 286 1096.17 286 1096 286.201 1096 286.449L1096 317.551C1096 317.799 1096.17 318 1096.39 318Z" fill="#CEA68A" fill-rule="evenodd"/><path d="M1039 274 1104 274 1104 276 1039 276Z" fill="#CEA68A" fill-rule="evenodd"/><path d="M1038 276 1038 285 1105 285 1105 276Z" fill="#DDB69B" fill-rule="evenodd"/><path d="M1104.03 270.759 1038.05 270.759 1037 269 1037 274 1105 274 1105 269Z" fill="#E2C8B3" fill-rule="evenodd"/><path d="M1040 317 1048 317 1048 319 1040 319Z" fill="#DDB69B" fill-rule="evenodd"/><path d="M1040 285 1048 285 1048 287 1040 287Z" fill="#CEA68A" fill-rule="evenodd"/><path d="M1051 317 1059 317 1059 319 1051 319Z" fill="#DDB69B" fill-rule="evenodd"/><path d="M1051 285 1059 285 1059 287 1051 287Z" fill="#CEA68A" fill-rule="evenodd"/><path d="M1062 317 1070 317 1070 319 1062 319Z" fill="#DDB69B" fill-rule="evenodd"/><path d="M1062 285 1070 285 1070 287 1062 287Z" fill="#CEA68A" fill-rule="evenodd"/><path d="M1073 317 1081 317 1081 319 1073 319Z" fill="#DDB69B" fill-rule="evenodd"/><path d="M1073 285 1081 285 1081 287 1073 287Z" fill="#CEA68A" fill-rule="evenodd"/><path d="M1083 317 1091 317 1091 319 1083 319Z" fill="#DDB69B" fill-rule="evenodd"/><path d="M1083 285 1091 285 1091 287 1083 287Z" fill="#CEA68A" fill-rule="evenodd"/><path d="M1094 317 1102 317 1102 319 1094 319Z" fill="#DDB69B" fill-rule="evenodd"/><path d="M1094 285 1102 285 1102 287 1094 287Z" fill="#CEA68A" fill-rule="evenodd"/><path d="M1061.23 278C1062.34 278 1062.98 278.462 1062.98 279.246 1062.98 279.738 1062.72 280.104 1062.38 280.258L1062.38 280.302C1062.8 280.441 1063.24 280.852 1063.24 281.548 1063.24 282.413 1062.57 282.941 1061.47 282.941L1059 282.941 1059 282.23 1059.46 282.23 1059.46 278.711 1059 278.711 1059 278 1061.23 278 1061.23 278ZM1060.55 280.075 1061.03 280.075C1061.64 280.075 1061.93 279.804 1061.93 279.371 1061.93 278.931 1061.64 278.711 1061.03 278.711L1060.55 278.711 1060.55 280.075ZM1060.55 282.23 1061.2 282.23C1061.85 282.23 1062.12 281.959 1062.12 281.497 1062.12 281.035 1061.85 280.727 1061.2 280.727L1060.55 280.727 1060.55 282.23ZM1068.35 278 1069.98 282.23 1070.37 282.23 1070.37 282.941 1068.19 282.941 1068.19 282.23 1068.81 282.23 1068.55 281.541 1066.74 281.541 1066.48 282.23 1067.1 282.23 1067.1 282.941 1065.08 282.941 1065.08 282.23 1065.46 282.23 1066.77 278.719 1066.15 278.719 1066.15 278 1068.35 278ZM1067.53 279.312 1066.98 280.866 1068.3 280.866 1067.72 279.312 1067.65 279.012 1067.61 279.012 1067.53 279.312ZM1072.2 282.23 1072.66 282.23 1072.66 278.711 1072.2 278.711 1072.2 278 1073.75 278 1075.83 281.357 1075.87 281.35 1075.81 280.888 1075.81 278.711 1075.24 278.711 1075.24 278 1077.2 278 1077.2 278.711 1076.74 278.711 1076.74 282.941 1075.66 282.941 1073.57 279.591 1073.53 279.606 1073.59 280.067 1073.59 282.23 1074.15 282.23 1074.15 282.941 1072.2 282.941 1072.2 282.23 1072.2 282.23ZM1081.17 278 1081.17 278.711 1080.71 278.711 1080.71 282.23 1081.22 282.23 1081.22 282.941 1079.17 282.941 1079.17 282.23 1079.63 282.23 1079.63 278.711 1079.17 278.711 1079.17 278 1081.17 278ZM1083.94 278 1083.94 278.711 1083.46 278.711 1082.21 280.332 1083.05 281.629C1083.3 282.003 1083.61 282.23 1083.91 282.23L1084 282.23 1084 282.941C1083.83 282.982 1083.66 283.001 1083.48 283 1082.89 283 1082.42 282.795 1081.99 282.12L1080.94 280.464 1082.1 278.91 1082.28 278.748 1082.27 278.712 1081.77 278.712 1081.77 278.001 1083.94 278Z" fill="#9B6948" fill-rule="evenodd"/><path d="M501 277 555 277 555 322 501 322Z" fill="#FFCE54" fill-rule="evenodd"/><path d="M536 292 547 292 547 321 536 321Z" fill="#4FC2E9" fill-rule="evenodd"/><path d="M501 258 554 258 554 267 501 267Z" fill="#E6E9ED" fill-rule="evenodd"/><path d="M507 293 530 293 530 311 507 311Z" fill="#4FC2E9" fill-rule="evenodd"/><path d="M506 291 506 312.7 531.295 312.7 531.295 291 506 291ZM528.764 309.599 508.529 309.599 508.529 294.099 528.764 294.099 528.764 309.599ZM533.824 291 533.824 322 549 322 549 291 533.824 291ZM546.471 318.901 536.352 318.901 536.352 294.099 546.471 294.099 546.471 318.901Z" fill="#F5F7FA" fill-rule="evenodd"/><path d="M526.625 301.999C526.26 301.998 525.91 302.157 525.653 302.44L522.904 305.439C522.645 305.72 522.5 306.102 522.5 306.5 522.5 307.329 523.117 308 523.877 308 524.254 308 524.598 307.833 524.847 307.562L527.598 304.56C527.855 304.279 528 303.898 528 303.501 528 302.672 527.385 301.999 526.625 301.999ZM527.598 298.561C527.855 298.279 528 297.898 528 297.5 528 296.672 527.386 296 526.627 296 526.626 296 526.626 296 526.625 296 526.261 295.999 525.91 296.157 525.653 296.439L517.404 305.439C516.867 306.023 516.865 306.973 517.401 307.559 517.659 307.842 518.009 308 518.375 308 518.757 308 519.098 307.833 519.347 307.562L527.598 298.561Z" fill="#3BAFDA" fill-rule="evenodd"/><path d="M546.753 305 535.247 305C534.558 305 534 305.671 534 306.5 534 307.329 534.558 308 535.247 308L546.753 308C547.442 308 548 307.329 548 306.5 548 305.671 547.442 305 546.753 305Z" fill="#F5F7FA" fill-rule="evenodd"/><path d="M550.647 288C554.707 288 558 283.905 558 278.856 558 278.37 557.968 277.893 557.91 277.428L557.868 277.14C557.861 277.096 557.855 277.051 557.85 277.007L553.588 264 543 264 544.764 284.343 545.012 284.731C546.363 286.728 548.384 288 550.647 288Z" fill="#DA4453" fill-rule="evenodd"/><path d="M533 264 533.57 284.343C534.874 286.562 536.95 288 539.285 288 541.624 288 543.695 286.562 545 284.343L543.286 264 533 264Z" fill="#E6E9ED" fill-rule="evenodd"/><path d="M504.352 288C500.292 288 497 283.905 497 278.856 497 278.37 497.03 277.893 497.09 277.428L497.088 277.428 497.131 277.14C497.137 277.096 497.143 277.051 497.15 277.007L501.412 264 512 264 510.234 284.343 509.987 284.731C508.639 286.728 506.615 288 504.352 288Z" fill="#DA4453" fill-rule="evenodd"/><path d="M522 264 521.428 284.343C520.126 286.562 518.052 288 515.714 288 513.379 288 511.304 286.562 510 284.343L511.715 264 522 264Z" fill="#E6E9ED" fill-rule="evenodd"/><path d="M522.549 264 522 284.343C523.252 286.562 525.251 288 527.5 288 529.75 288 531.748 286.562 533 284.343L532.451 264 522.549 264Z" fill="#DA4453" fill-rule="evenodd"/><path d="M497.144 277 497.133 277.085 497.089 277.374 497.091 277.374C497.03 277.849 496.999 278.329 497 278.81 497 283.884 500.323 288 504.422 288 506.707 288 508.75 286.721 510.111 284.714L510.36 284.324 511 277 497.144 277Z" fill="#ED5564" fill-rule="evenodd"/><path d="M510.635 277 510 284.324C511.345 286.555 513.486 288 515.895 288 518.307 288 520.445 286.555 521.789 284.324L522 277 510.635 277Z" fill="#F5F7FA" fill-rule="evenodd"/><path d="M522.197 277 522 284.324C523.252 286.555 525.251 288 527.5 288 529.75 288 531.748 286.555 533 284.324L532.803 277 522.197 277Z" fill="#ED5564" fill-rule="evenodd"/><path d="M533 277 533.211 284.324C534.556 286.555 536.697 288 539.106 288 541.518 288 543.654 286.555 545 284.324L544.367 277 533 277Z" fill="#F5F7FA" fill-rule="evenodd"/><path d="M557.915 277.374 557.877 277.085C557.873 277.056 557.868 277.028 557.864 277L545 277 545.592 284.324 545.825 284.714C547.091 286.721 548.986 288 551.107 288 554.913 288 558 283.885 558 278.81 558 278.329 557.971 277.849 557.915 277.374Z" fill="#ED5564" fill-rule="evenodd"/><path d="M520 297 513.642 297 513.642 307.437 513 309 519.515 309 519.515 308.77C519.273 308.77 519.043 308.643 518.868 308.413 518.721 308.221 518.626 307.975 518.591 307.7L517.896 302.196 520 302.196 520 297ZM519.833 301.965 517.698 301.965 518.426 307.739C518.467 308.063 518.58 308.354 518.753 308.58 518.807 308.651 518.866 308.715 518.93 308.77L513.287 308.77 513.809 307.498 513.809 297.23 519.833 297.23 519.833 301.965Z" fill="#4B555F" fill-rule="evenodd"/><path d="M520 298 514.38 298 514.38 307.158 514 308 519.177 308C519.018 307.811 518.913 307.563 518.876 307.293L518.165 302.164 520 302.164 520 298Z" fill="#71CBDF" fill-rule="evenodd"/><path d="M515.978 307 516.176 307 516.176 306.802 515.978 306.802 515.978 307ZM515.187 307 515.385 307 515.385 306.802 515.187 306.802 515.187 307ZM514 307 514.198 307 514.198 306.802 514 306.802 514 307ZM514.791 307 514.989 307 514.989 306.802 514.791 306.802 514.791 307ZM516.374 307 516.571 307 516.571 306.802 516.374 306.802 516.374 307ZM514.396 307 514.593 307 514.593 306.802 514.396 306.802 514.396 307ZM515.582 307 515.78 307 515.78 306.802 515.582 306.802 515.582 307ZM518.352 307 518.549 307 518.549 306.802 518.352 306.802 518.352 307ZM518.747 306.802 518.747 307 518.945 307 518.945 306.802 518.747 306.802ZM516.769 307 516.967 307 516.967 306.802 516.769 306.802 516.769 307ZM517.956 307 518.154 307 518.154 306.802 517.956 306.802 517.956 307ZM517.56 307 517.758 307 517.758 306.802 517.56 306.802 517.56 307ZM517.165 307 517.363 307 517.363 306.802 517.165 306.802 517.165 307ZM515.935 299C515.76 299 515.617 299.143 515.617 299.318 515.617 299.493 515.76 299.636 515.935 299.636 516.11 299.636 516.253 299.493 516.253 299.318 516.253 299.143 516.11 299 515.935 299ZM515.935 299.438C515.869 299.438 515.815 299.384 515.815 299.318 515.815 299.252 515.869 299.198 515.935 299.198 516.001 299.198 516.055 299.252 516.055 299.318 516.055 299.384 516.001 299.438 515.935 299.438ZM518.682 299C518.507 299 518.364 299.143 518.364 299.318 518.364 299.493 518.507 299.636 518.682 299.636 518.857 299.636 519 299.493 519 299.318 519 299.143 518.857 299 518.682 299ZM518.682 299.438C518.616 299.438 518.562 299.384 518.562 299.318 518.562 299.252 518.616 299.198 518.682 299.198 518.748 299.198 518.802 299.252 518.802 299.318 518.802 299.384 518.748 299.438 518.682 299.438Z" fill="#4B555F" fill-rule="evenodd"/><path d="M517.25 295C516.561 295 516 295.759 516 296.692L516 298.529 516.168 298.529 516.168 296.692C516.168 295.884 516.653 295.227 517.25 295.227 517.847 295.227 518.332 295.884 518.332 296.692L518.332 298.529 518.5 298.529 518.5 296.692C518.5 295.759 517.939 295 517.25 295ZM518.13 302.059 518.862 307.756C518.954 308.475 519.416 309.001 519.955 309L523.175 309C523.715 309.001 524.177 308.475 524.268 307.756L525 302.059 518.13 302.059ZM524.103 307.717C524.025 308.328 523.633 308.774 523.175 308.773L519.955 308.773C519.497 308.774 519.105 308.328 519.028 307.717L518.33 302.286 524.8 302.286 524.103 307.717Z" fill="#4B555F" fill-rule="evenodd"/><path d="M518 303 518.746 307.184C518.831 307.656 519.251 308 519.742 308L523.258 308C523.749 308 524.169 307.656 524.254 307.184L525 303 518 303Z" fill="#FFD351" fill-rule="evenodd"/><path d="M522.834 303 522.834 303.529C522.834 304.74 522.235 305.726 521.5 305.726 520.764 305.726 520.166 304.74 520.166 303.529L520.166 303 520 303 520 303.529C520 304.891 520.673 306 521.5 306 522.327 306 523 304.891 523 303.529L523 303 522.834 303Z" fill="#4B555F" fill-rule="evenodd"/><path d="M523.681 303C523.505 303 523.362 303.224 523.362 303.5 523.362 303.776 523.505 304 523.681 304 523.857 304 524 303.776 524 303.5 524 303.224 523.857 303 523.681 303ZM523.681 303.691C523.613 303.691 523.559 303.606 523.559 303.5 523.559 303.394 523.613 303.309 523.681 303.309 523.748 303.309 523.803 303.394 523.803 303.5 523.803 303.606 523.748 303.691 523.681 303.691ZM520.319 303C520.143 303 520 303.224 520 303.5 520 303.776 520.143 304 520.319 304 520.495 304 520.638 303.776 520.638 303.5 520.638 303.224 520.495 303 520.319 303ZM520.319 303.691C520.252 303.691 520.197 303.606 520.197 303.5 520.197 303.394 520.252 303.309 520.319 303.309 520.387 303.309 520.441 303.394 520.441 303.5 520.441 303.606 520.387 303.691 520.319 303.691Z" fill="#4B555F" fill-rule="evenodd"/><path d="M569.5 295 567 295 569.5 311.566C569.5 312.385 570.059 313 570.75 313 571.44 313 572 312.385 572 311.566L572 297.967C572 296.335 570.875 295 569.5 295Z" fill="#2275FF" fill-rule="evenodd"/><path d="M561.5 295 564 295 561.5 311.517C561.5 312.335 560.94 313 560.25 313 559.56 313 559 312.335 559 311.517L559 297.967C559 296.335 560.125 295 561.5 295Z" fill="#10BEFF" fill-rule="evenodd"/><path d="M570 297.982C570 296.342 568.85 295 567.445 295L563.555 295C562.15 295 561 296.342 561 297.982L561 326.12C561 327.158 561.721 328 562.611 328 563.501 328 564.222 327.158 564.222 326.12L564.222 311.6 566.778 311.6 566.778 326.12C566.778 327.158 567.499 328 568.389 328 569.279 328 570 327.158 570 326.12L570 297.982Z" fill="#199AFF" fill-rule="evenodd"/><path d="M566 282 566 292C567.657 292 569 289.761 569 287 569 284.239 567.657 282 566 282Z" fill="#2275FF" fill-rule="evenodd"/><path d="M567 287C567 284.239 566.44 282 565.75 282 563.679 282 562 284.239 562 287 562 289.761 563.679 292 565.75 292 566.44 292 567 289.761 567 287Z" fill="#199AFF" fill-rule="evenodd"/><path d="M737 280.073 737 307.927C737 309.09 736.083 310 734.91 310L718.09 310C716.917 310 716 309.09 716 307.927L716 280.073C716 278.91 716.917 278 718.09 278L734.91 278C736.032 278 737 278.961 737 280.073Z" fill="#4988FD" fill-rule="evenodd"/><path d="M721 278 725 278 725 310 721 310Z" fill="#3973F4" fill-rule="evenodd"/><path d="M736.928 290 736.928 299.595 740.254 303.224C740.868 303.871 741.226 304.716 741.277 305.611L741.431 308.544C741.482 308.991 741.175 309.389 740.766 309.489L737.235 310.483C736.723 310.632 736.16 310.384 735.955 309.886L735.904 309.787 735.341 308.544 733.243 303.672C733.09 303.374 732.936 303.075 732.731 302.827 731.657 301.484 729.712 300.987 728.075 301.733 727.409 302.031 727 302.727 727 303.423 727 303.622 727.051 303.821 727.102 304.02L729.303 310.185 732.015 317.841C732.424 319.084 733.192 320.178 734.164 321.023L736.979 323.459 738.412 324.702C738.667 324.901 738.974 325 739.281 325 741.021 325 747.06 324.901 749.721 324.95 750.437 324.95 751 324.403 751 323.707L751 305.661C751 304.169 750.386 302.777 749.311 301.733L736.928 290Z" fill="#C5DCFA" fill-rule="evenodd"/><path d="M730.99 264.735C730.435 264.735 729.98 264.281 729.98 263.725L729.98 262.311C729.98 261.756 730.435 261.302 730.99 261.302 731.546 261.302 732 261.756 732 262.311L732 263.725C732 264.281 731.546 264.735 730.99 264.735ZM730.99 276.903C730.435 276.903 729.98 276.449 729.98 275.893L729.98 267.209C729.98 266.654 730.435 266.199 730.99 266.199 731.546 266.199 732 266.654 732 267.209L732 275.893C732 276.449 731.546 276.903 730.99 276.903ZM726.092 263.826C725.537 263.826 725.082 263.372 725.082 262.816L725.082 257.01C725.082 256.454 725.537 256 726.092 256 726.647 256 727.102 256.454 727.102 257.01L727.102 262.816C727.102 263.372 726.647 263.826 726.092 263.826ZM726.092 276.903C725.537 276.903 725.082 276.449 725.082 275.893L725.082 266.957C725.082 266.401 725.537 265.947 726.092 265.947 726.647 265.947 727.102 266.401 727.102 266.957L727.102 275.893C727.102 276.449 726.647 276.903 726.092 276.903ZM691.149 265.644 715.892 265.644C718.013 265.644 719.78 267.36 719.78 269.532L719.78 294.02C719.78 294.575 719.78 295.13 719.729 295.686L717.407 323.607C717.205 326.081 715.134 328 712.66 328L683.12 328C680.646 328 678.575 326.081 678.373 323.607L676.05 295.686C676 295.13 676 294.575 676 294.02L676 269.532C676 267.411 677.717 265.644 679.888 265.644L683.928 265.644" fill="#C5DCFA" fill-rule="evenodd"/><path d="M714 280.9 714 288.1C714 289.15 713.206 290 712.214 290L683.786 290C682.794 290 682 289.15 682 288.1L682 280.9C682 279.85 682.794 279 683.786 279L712.214 279C713.206 279 714 279.85 714 280.9Z" fill="#DFECFD" fill-rule="evenodd"/><path d="M695 298C695 299.657 696.343 301 698 301 699.656 301 701 299.658 701 298.001 701 298.001 701 298 701 298 701 296.343 699.657 295 698 295 696.344 295 695 296.342 695 297.999 695 297.999 695 298 695 298Z" fill="#4988FD" fill-rule="evenodd"/><path d="M695 308C695 309.657 696.343 311 698 311 699.656 311 701 309.658 701 308.001 701 308.001 701 308 701 308 701 306.343 699.657 305 698 305 696.344 305 695 306.342 695 307.999 695 307.999 695 308 695 308Z" fill="#4988FD" fill-rule="evenodd"/><path d="M685 298C685 299.657 686.119 301 687.5 301 688.88 301 690 299.658 690 298.001 690 298.001 690 298 690 298 690 296.343 688.881 295 687.5 295 686.12 295 685 296.342 685 297.999 685 297.999 685 298 685 298Z" fill="#4988FD" fill-rule="evenodd"/><path d="M706 298C706 299.657 707.119 301 708.5 301 709.881 301 711 299.657 711 298 711 296.343 709.881 295 708.5 295 707.119 295 706 296.343 706 298Z" fill="#4988FD" fill-rule="evenodd"/><path d="M685 307.5C685 308.881 686.119 310 687.5 310 688.881 310 690 308.881 690 307.5 690 306.119 688.881 305 687.5 305 686.119 305 685 306.119 685 307.5Z" fill="#4988FD" fill-rule="evenodd"/><path d="M706 307.5C706 308.881 707.119 310 708.5 310 709.881 310 711 308.881 711 307.5 711 306.119 709.881 305 708.5 305 707.119 305 706 306.119 706 307.5Z" fill="#4988FD" fill-rule="evenodd"/><path d="M685 317.5C685 318.881 686.119 320 687.5 320 688.881 320 690 318.881 690 317.5 690 316.119 688.881 315 687.5 315 686.119 315 685 316.119 685 317.5Z" fill="#4988FD" fill-rule="evenodd"/><path d="M695 317.5C695 318.88 696.343 320 698 320 699.656 320 701 318.881 701 317.501 701 317.501 701 317.5 701 317.5 701 316.12 699.657 315 698 315 696.344 315 695 316.119 695 317.499 695 317.499 695 317.5 695 317.5Z" fill="#4988FD" fill-rule="evenodd"/><path d="M706 317.5C706 318.881 707.119 320 708.5 320 709.881 320 711 318.881 711 317.5 711 316.119 709.881 315 708.5 315 707.119 315 706 316.119 706 317.5Z" fill="#4988FD" fill-rule="evenodd"/><path d="M714.73 276 682.27 276C681.559 276 681 275.34 681 274.5 681 273.66 681.559 273 682.27 273L714.73 273C715.441 273 716 273.66 716 274.5 716 275.28 715.441 276 714.73 276Z" fill="#3973F4" fill-rule="evenodd"/><path d="M706.842 255.588 706.842 253 703.987 255.1 701.132 253 698.276 255.1 695.421 253 692.566 255.1 689.711 253 686.855 255.1 684 253 684 267.407C684.05 271.167 684.751 272.779 688.007 274L711 274C707.794 273.17 706.892 271.265 706.993 267.407L706.993 261.302" fill="#DFECFD" fill-rule="evenodd"/><path d="M701.081 266 687.919 266C687.435 266 687 265.576 687 264.992 687 264.462 687.387 263.985 687.919 263.985L701.081 263.985C701.565 263.985 702 264.409 702 264.992 702 265.576 701.613 266 701.081 266ZM701.081 261.015 695.952 261.015C695.468 261.015 695.032 260.591 695.032 260.008 695.032 259.424 695.419 259 695.952 259L701.081 259C701.565 259 702 259.424 702 260.008 702 260.591 701.613 261.015 701.081 261.015ZM689.903 261.015 687.919 261.015C687.435 261.015 687 260.591 687 260.008 687 259.424 687.387 259 687.919 259L689.903 259C690.387 259 690.823 259.424 690.823 260.008 690.823 260.591 690.435 261.015 689.903 261.015Z" fill="#C5DCFA" fill-rule="evenodd"/><path d="M915 265.599 915 298.401C915 300.406 913.444 302 911.485 302L858.515 302C856.557 302 855 300.406 855 298.401L855 265.599C855 263.594 856.557 262 858.515 262L911.485 262C913.393 262 915 263.645 915 265.599Z" fill="#3973F4" fill-rule="evenodd"/><path d="M915 277 915 298.354C915 300.385 913.442 302 911.482 302L867 302 867 280.646C867 278.615 868.558 277 870.518 277L915 277Z" fill="#2561E6" fill-rule="evenodd"/><path d="M926.485 319 873.515 319C871.557 319 870 317.366 870 315.311L870 281.689C870 279.634 871.557 278 873.515 278L926.485 278C928.444 278 930 279.634 930 281.689L930 315.311C930 317.366 928.444 319 926.485 319Z" fill="#3973F4" fill-rule="evenodd"/><path d="M885.219 294 877.222 294C876.56 294 876 293.313 876 292.5 876 291.688 876.56 291 877.222 291L885.219 291C885.881 291 886.442 291.688 886.442 292.5 886.442 293.313 885.932 294 885.219 294ZM898.106 294 890.109 294C889.447 294 888.887 293.313 888.887 292.5 888.887 291.688 889.447 291 890.109 291L898.106 291C898.768 291 899.328 291.688 899.328 292.5 899.328 293.313 898.768 294 898.106 294ZM910.942 294 902.945 294C902.283 294 901.722 293.313 901.722 292.5 901.722 291.688 902.283 291 902.945 291L910.942 291C911.604 291 912.164 291.688 912.164 292.5 912.164 293.313 911.604 294 910.942 294ZM923.778 294 915.781 294C915.119 294 914.558 293.313 914.558 292.5 914.558 291.688 915.119 291 915.781 291L923.778 291C924.44 291 925 291.688 925 292.5 925 293.313 924.491 294 923.778 294Z" fill="#FFFFFF" fill-rule="evenodd"/><path d="M916 309.5C916 311.985 918.015 314 920.5 314 922.985 314 925 311.985 925 309.5 925 307.015 922.985 305 920.5 305 918.015 305 916 307.015 916 309.5Z" fill="#FFFFFF" fill-rule="evenodd"/><path d="M910 309.5C910 311.985 912.015 314 914.5 314 916.985 314 919 311.985 919 309.5 919 307.015 916.985 305 914.5 305 912.015 305 910 307.015 910 309.5Z" fill="#FFFFFF" fill-rule="evenodd"/><path d="M855 269 915 269 915 276 855 276Z" fill="#D9D9D9" fill-rule="evenodd"/><path d="M625.875 282 625.875 288.4 609 288.4 609 291.6 625.875 291.6 625.875 298 639 290Z" fill="#BFBFBF" fill-rule="evenodd"/><path d="M804.875 282 804.875 288.4 788 288.4 788 291.6 804.875 291.6 804.875 298 818 290Z" fill="#BFBFBF" fill-rule="evenodd"/><path d="M983.875 282 983.875 288.4 967 288.4 967 291.6 983.875 291.6 983.875 298 997 290Z" fill="#BFBFBF" fill-rule="evenodd"/></g></svg>